<?xml version="1.0" encoding="UTF-8"?>
<svg width="425px" height="372px" viewBox="0 0 425 372" version="1.1" xmlns="http://www.w3.org/2000/svg" xmlns:xlink="http://www.w3.org/1999/xlink">
    <!-- Generator: Sketch 47.1 (45422) - http://www.bohemiancoding.com/sketch -->
    <title>Artboard</title>
    <desc>Created with Sketch.</desc>
    <defs></defs>
    <g id="Page-1" stroke="none" stroke-width="1" fill="none" fill-rule="evenodd">
        <g id="Artboard">
            <g id="octopus" transform="translate(21.000000, 18.000000)">
                <polyline id="Fill-3" fill="#E9864E" points="80.451 245.652 110.693 230.911 117 240.947 108.144 245.485 107.75 256.182 91.422 258.965 80.451 245.652"></polyline>
                <polyline id="Fill-4" fill="#ED9A60" points="82.144 35.152 36.379 40.152 35.894 101.652 82.644 105.652 82.144 35.152"></polyline>
                <polyline id="Fill-5" fill="#CF6E35" points="169.479 174.077 165.556 253.575 145.155 231.886 169.479 174.077"></polyline>
                <polyline id="Fill-6" fill="#E9874E" points="179.242 260.556 189.894 156.652 169.479 174.077 157.471 252.61 179.242 260.556"></polyline>
                <polyline id="Fill-7" fill="#DE7B42" points="283.144 219.746 321.854 224.902 330.792 244.656 321.761 280.156 283.144 219.746"></polyline>
                <polyline id="Fill-8" fill="#D7753D" points="4.242 93.009 35.894 101.652 52.629 141.395 4.242 93.009"></polyline>
                <polyline id="Fill-9" fill="#C4642E" points="35.894 101.652 82.644 105.652 91.339 143.008 52.629 141.395 35.894 101.652"></polyline>
                <polyline id="Fill-10" fill="#AF522D" points="136.5 125.266 135.769 92.652 82.644 105.652 91.339 143.008 136.5 125.266"></polyline>
                <polyline id="Fill-11" fill="#EC9259" points="5.048 47.851 36.379 40.152 35.894 101.652 4.242 93.009 5.048 47.851"></polyline>
                <polyline id="Fill-12" fill="#ED975D" points="5.048 47.851 36.379 40.152 53.436 10.758 5.048 47.851"></polyline>
                <polyline id="Fill-13" fill="#EB8F57" points="53.436 10.758 100.224 0.954 82.144 35.152 36.379 40.152 53.436 10.758"></polyline>
                <polyline id="Fill-14" fill="#EA8D55" points="82.144 35.152 146.311 44.152 135.769 92.652 82.644 105.652 82.144 35.152"></polyline>
                <polyline id="Fill-15" fill="#E9864D" points="100.224 0.954 160.095 14.844 146.311 44.152 82.144 35.152 100.224 0.954"></polyline>
                <polyline id="Fill-16" fill="#D37139" points="283.144 219.746 321.761 280.156 286.229 285.475 283.144 219.746"></polyline>
                <polyline id="Fill-17" fill="#D17038" points="330.792 244.656 321.761 280.156 342.471 293.527 342.477 269.319 330.792 244.656"></polyline>
                <polyline id="Fill-18" fill="#C6662E" points="286.229 285.475 321.761 280.156 342.471 293.527 312.306 316.399 286.229 285.475"></polyline>
                <polyline id="Fill-19" fill="#EC935A" points="165.556 253.575 141.644 228.319 122.184 245.353 150.24 253.09 165.556 253.575"></polyline>
                <polyline id="Fill-20" fill="#CD6C33" points="131.919 262.739 122.184 245.353 150.24 253.09 131.919 262.739"></polyline>
                <polyline id="Fill-21" fill="#DE7A41" points="144.144 307.193 131.919 262.739 122.184 245.353 121.144 283.402 144.144 307.193"></polyline>
                <polyline id="Fill-22" fill="#DD7940" points="181.644 313.399 176.085 298.89 140.42 293.652 144.144 307.193 181.644 313.399"></polyline>
                <polyline id="Fill-23" fill="#A74C2D" points="348.597 110.068 370.144 129.652 367.145 162.137 348.597 110.068"></polyline>
                <polyline id="Fill-24" fill="#C6662E" points="367.145 162.137 380.048 177.523 370.144 129.652 367.145 162.137"></polyline>
                <polyline id="Fill-25" fill="#DD7940" points="356.144 184.152 370.144 206.34 380.048 177.523 367.145 162.137 356.144 184.152"></polyline>
                <polyline id="Fill-26" fill="#EA8B52" points="321.983 184.652 321.854 224.902 370.144 206.34 356.144 184.152 321.983 184.652"></polyline>
                <polyline id="Fill-27" fill="#E58148" points="59.144 194.651 38.477 214.315 52.629 216.396 59.144 194.651"></polyline>
                <polyline id="Fill-28" fill="#BD5E2E" points="59.08 232.593 52.629 216.396 38.477 214.315 59.08 232.593"></polyline>
                <polyline id="Fill-29" fill="#CF6D34" points="87.951 222.983 67.951 213.976 52.629 216.396 59.08 232.593 87.951 222.983"></polyline>
                <polyline id="Fill-30" fill="#D7743C" points="89.726 177.539 67.951 213.976 87.951 222.983 89.726 177.539"></polyline>
                <polyline id="Fill-31" fill="#E07D44" points="64.726 188.17 89.726 177.539 67.951 213.976 64.726 188.17"></polyline>
                <polyline id="Fill-32" fill="#CD6C33" points="43.144 186.265 42.478 171.984 89.726 177.539 64.726 188.17 43.144 186.265"></polyline>
                <polyline id="Fill-33" fill="#D5733B" points="42.478 171.984 12.144 194.651 28.436 208.982 43.144 186.265 42.478 171.984"></polyline>
                <polyline id="Fill-34" fill="#E68249" points="46.811 244.652 28.436 208.982 12.144 194.651 36.629 253.945 46.811 244.652"></polyline>
                <polyline id="Fill-35" fill="#EA8B53" points="91.422 258.965 80.451 245.652 46.811 244.652 36.629 253.945 91.422 258.965"></polyline>
                <polyline id="Fill-36" fill="#DE7B42" points="110.693 230.911 146.983 183.331 169.479 174.077 145.155 231.886 141.644 228.319 117 240.947 110.693 230.911"></polyline>
                <polyline id="Fill-37" fill="#CA6930" points="169.479 174.077 163.644 120.103 154.242 137.362 146.983 183.331 169.479 174.077"></polyline>
                <polyline id="Fill-38" fill="#C4642E" points="259.08 272.056 277.629 275.274 268.354 253.945 259.08 272.056"></polyline>
                <polyline id="Fill-39" fill="#D7753D" points="251.144 227.863 228.922 303.492 259.08 272.056 268.354 253.945 251.144 227.863"></polyline>
                <polyline id="Fill-40" fill="#E48047" points="219.144 214.326 195.282 293.152 228.922 303.492 251.144 227.863 219.144 214.326"></polyline>
                <polyline id="Fill-41" fill="#D27139" points="179.271 260.556 176.144 298.89 199.044 217.218 179.271 260.556"></polyline>
                <polyline id="Fill-42" fill="#EC965C" points="219.144 214.326 199 217.218 176.085 298.89 195.282 293.152 219.144 214.326"></polyline>
                <polyline id="Fill-43" fill="#DD7940" points="189.894 156.652 199 217.218 179.242 260.556 189.894 156.652"></polyline>
                <polyline id="Fill-44" fill="#EB9159" points="213.308 146.152 189.894 156.652 199 217.218 219.144 214.326 213.308 146.152"></polyline>
                <polyline id="Fill-45" fill="#E9874E" points="251.144 227.863 253.144 150.652 213.308 146.152 219.144 214.326 251.144 227.863"></polyline>
                <polyline id="Fill-46" fill="#D27139" points="268.354 253.945 253.144 150.652 251.144 227.863 268.354 253.945"></polyline>
                <polyline id="Fill-47" fill="#E9854C" points="253.144 150.652 211.811 93.027 185.519 92.649 213.308 146.152 253.144 150.652"></polyline>
                <polyline id="Fill-48" fill="#EA8A51" points="175.144 101.652 185.519 92.649 213.308 146.152 189.894 156.652 175.144 101.652"></polyline>
                <polyline id="Fill-49" fill="#EA8950" points="179.173 79.139 196.796 82.41 194.96 77.569 182.024 75.352 179.173 79.139"></polyline>
                <polyline id="Fill-50" fill="#D4723A" points="169.995 62.823 175.12 62.186 182.024 75.352 179.173 79.139 169.995 62.823"></polyline>
                <polyline id="Fill-51" fill="#B3572E" points="184.332 52.305 182.317 47.739 169.995 62.823 175.12 62.186 184.332 52.305"></polyline>
                <polyline id="Fill-52" fill="#7D2A23" points="198.317 55.384 201.371 51.935 182.317 47.739 184.332 52.305 198.317 55.384"></polyline>
                <polyline id="Fill-53" fill="#AF522D" points="210.144 66.652 201.371 51.935 198.317 55.384 204.492 66.381 210.144 66.652"></polyline>
                <polyline id="Fill-54" fill="#D4723A" points="196.796 82.41 210.144 66.652 204.492 66.381 194.96 77.569 196.796 82.41"></polyline>
                <polyline id="Fill-55" fill="#AA4F2D" points="135.769 92.652 163.644 120.103 154.242 137.362 136.5 125.266 135.769 92.652"></polyline>
                <polyline id="Fill-56" fill="#DF7C43" points="175.144 101.652 163.644 120.103 169.479 174.077 189.894 156.652 175.144 101.652"></polyline>
                <polyline id="Fill-57" fill="#C2632E" points="135.769 92.652 175.144 101.652 163.644 120.103 135.769 92.652"></polyline>
                <polyline id="Fill-58" fill="#B95B2E" points="179.173 79.139 196.796 82.41 211.811 93.027 185.519 92.649 179.173 79.139"></polyline>
                <polyline id="Fill-59" fill="#CF6D34" points="225.144 67.652 210.144 66.652 196.796 82.41 211.811 93.027 225.144 67.652"></polyline>
                <polyline id="Fill-60" fill="#E58148" points="213.308 40.152 225.144 67.652 210.144 66.652 201.371 51.935 213.308 40.152"></polyline>
                <polyline id="Fill-61" fill="#EC9259" points="182.024 32.986 213.308 40.152 201.371 51.935 182.317 47.739 182.024 32.986"></polyline>
                <polyline id="Fill-62" fill="#ED9A61" points="146.311 44.152 182.024 32.986 182.317 47.739 146.311 44.152"></polyline>
                <polyline id="Fill-63" fill="#EA8950" points="169.995 62.823 146.311 44.152 182.317 47.739 169.995 62.823"></polyline>
                <polyline id="Fill-64" fill="#CF6D34" points="179.173 79.139 169.995 62.823 136.178 92.295 135.769 92.652 179.173 79.139"></polyline>
                <polyline id="Fill-65" fill="#DE7A41" points="146.311 44.152 169.995 62.823 135.769 92.652 146.311 44.152"></polyline>
                <polyline id="Fill-66" fill="#EA8B52" points="182.024 32.986 192.951 21.296 160.095 14.844 146.311 44.152 182.024 32.986"></polyline>
                <polyline id="Fill-67" fill="#EC955C" points="213.308 40.152 216.339 19.746 192.951 21.296 182.024 32.986 213.308 40.152"></polyline>
                <polyline id="Fill-68" fill="#E37F46" points="225.144 67.652 245.37 65.282 242.145 38.419 213.308 40.152 225.144 67.652"></polyline>
                <polyline id="Fill-69" fill="#EA8A51" points="216.339 19.746 242.145 38.419 213.308 40.152 216.339 19.746"></polyline>
                <polyline id="Fill-70" fill="#EA8B53" points="245.37 65.282 267.951 87.557 251.37 90.152 225.144 67.652 245.37 65.282"></polyline>
                <polyline id="Fill-71" fill="#D07037" points="293.758 154.137 268.354 141.652 251.37 90.152 267.951 87.557 293.758 154.137"></polyline>
                <polyline id="Fill-72" fill="#E07D44" points="268.354 141.652 321.854 224.902 321.983 184.152 293.758 154.137 268.354 141.652"></polyline>
                <polyline id="Fill-73" fill="#D06F36" points="135.769 92.652 175.144 101.652 179.173 79.139 135.769 92.652"></polyline>
                <polyline id="Fill-74" fill="#C6662E" points="179.173 79.139 175.144 101.652 185.519 92.649 179.173 79.139"></polyline>
                <polyline id="Fill-75" fill="#EA8B53" points="253.144 150.652 268.354 141.652 251.37 90.152 211.811 93.027 253.144 150.652"></polyline>
                <polyline id="Fill-76" fill="#E48047" points="225.144 67.652 211.811 93.027 251.37 90.152 225.144 67.652"></polyline>
                <polyline id="Fill-77" fill="#E37F46" points="268.354 253.945 283.144 219.746 253.144 150.652 268.354 253.945"></polyline>
                <polyline id="Fill-78" fill="#EB8E56" points="268.354 141.652 253.144 150.652 283.144 219.746 321.854 224.902 268.354 141.652"></polyline>
                <polyline id="Fill-79" fill="#D9763E" points="283.144 219.746 286.229 285.475 277.629 275.274 268.354 253.945 283.144 219.746"></polyline>
                <polyline id="Fill-80" fill="#E9874E" points="176.085 298.89 181.644 313.399 195.282 293.152 176.085 298.89"></polyline>
                <polyline id="Fill-81" fill="#D7743C" points="195.282 293.152 181.644 313.399 228.922 303.492 195.282 293.152"></polyline>
                <polyline id="Fill-82" fill="#BF989E" points="107.75 256.182 91.422 258.965 85.693 285.953 102.574 276.173 107.75 256.182"></polyline>
                <polyline id="Fill-83" fill="#D0A4AB" points="312.306 316.399 342.471 293.527 367.576 297.492 346.983 321.234 312.306 316.399"></polyline>
                <polyline id="Fill-84" fill="#EDC2C8" points="366.28 267.456 342.477 269.319 342.471 293.527 367.576 297.492 366.28 267.456"></polyline>
                <polyline id="Fill-85" fill="#F7D5DC" points="347.79 233.339 330.792 244.656 342.477 269.319 366.28 267.456 347.79 233.339"></polyline>
                <polyline id="Fill-86" fill="#FCEBEE" points="309.144 235.652 330.792 244.656 347.79 233.339 321.854 224.902 309.144 235.652"></polyline>
                <polyline id="Fill-87" fill="#FEF5F7" points="296.644 233.339 321.854 224.902 309.144 235.652 296.644 233.339"></polyline>
                <polyline id="Fill-88" fill="#F8D9E0" points="300.144 258.652 296.644 233.339 309.144 235.652 300.144 258.652"></polyline>
                <polyline id="Fill-89" fill="#BF989E" points="228.922 303.492 181.644 313.399 179.298 347.046 228.922 303.492"></polyline>
                <polyline id="Fill-90" fill="#D0A4AB" points="127.657 334.232 144.144 307.193 181.644 313.399 179.298 347.046 127.657 334.232"></polyline>
                <polyline id="Fill-91" fill="#EDC2C8" points="100.224 288.888 121.144 283.152 144.144 307.193 127.657 334.232 100.224 288.888"></polyline>
                <polyline id="Fill-92" fill="#F8D8DF" points="122.184 245.353 121.144 283.652 100.224 289.638 108.144 245.485 122.184 245.353"></polyline>
                <polyline id="Fill-93" fill="#FDEDF0" points="141.644 228.319 122.184 245.353 108.144 245.485 141.644 228.319"></polyline>
                <polyline id="Fill-94" fill="#DD7940" points="355.048 127.379 348.597 110.068 330.854 140.032 355.048 127.379"></polyline>
                <polyline id="Fill-95" fill="#FDEDF0" points="348.597 110.068 370.144 129.652 380.048 122.909 348.597 110.068"></polyline>
                <polyline id="Fill-96" fill="#F7D5DC" points="370.144 129.652 380.048 177.523 397.79 173.656 380.048 122.909 370.144 129.652"></polyline>
                <polyline id="Fill-97" fill="#E0B4BB" points="375.209 217.218 370.144 206.34 321.854 224.902 347.79 233.339 375.209 217.218"></polyline>
                <polyline id="Fill-98" fill="#EDC2C8" points="380.048 177.523 370.144 206.34 375.209 217.218 397.79 173.656 380.048 177.523"></polyline>
                <polyline id="Fill-99" fill="#D0A4AB" points="36.629 253.945 91.422 258.965 85.693 285.953 21.178 272.165 36.629 253.945"></polyline>
                <polyline id="Fill-100" fill="#F7D5DC" points="36.629 253.945 12.144 194.651 0.21 192.265 21.178 272.165 36.629 253.945"></polyline>
                <polyline id="Fill-101" fill="#FCEBEE" points="42.478 171.984 12.144 194.651 0.21 192.265 42.951 161.588 42.478 171.984"></polyline>
                <polyline id="Fill-102" fill="#F7D5DC" points="89.726 177.539 42.478 171.984 42.951 161.588 89.726 177.539"></polyline>
                <polyline id="Fill-103" fill="#E48047" points="156.662 285.875 165.556 253.575 150.24 253.09 156.662 285.875"></polyline>
                <polyline id="Fill-104" fill="#424342" points="175.12 62.186 182.024 75.352 189.515 69.383 175.12 62.186"></polyline>
                <polyline id="Fill-105" fill="#353635" points="189.515 69.383 182.024 75.352 194.96 77.569 189.515 69.383"></polyline>
                <polyline id="Fill-106" fill="#3C3D3C" points="189.515 69.383 204.492 66.381 194.96 77.569 189.515 69.383"></polyline>
                <polyline id="Fill-107" fill="#5E5F5E" points="184.332 52.305 189.515 69.383 175.12 62.186 184.332 52.305"></polyline>
                <polyline id="Fill-108" fill="#505150" points="198.317 55.384 184.332 52.305 189.515 69.383 198.317 55.384"></polyline>
                <polyline id="Fill-109" fill="#454645" points="204.492 66.381 189.515 69.383 198.317 55.384 204.492 66.381"></polyline>
            </g>
        </g>
    </g>
</svg>